<svg viewBox="0 0 640 561.2714" xmlns="http://www.w3.org/2000/svg"><path d="M105 203.024q12-34 38-60 49-47 113-47t113 47l17 17h-50q-14 0-23 9t-9 23q0 14 9 23t23 9h128q14 0 23-9t9-23v-128q0-14-9-23t-23-9q-14 0-23 9t-9 23v51l-18-17q-44-44-101-59-57-14-114 0-57 15-101 59-37 37-53 83-4 13 1 25 6 11 18 16 13 4 25-1 11-6 16-18zm-66 86q-8 3-14 9t-8 14q0 1-1 3v133q0 14 9 23t23 9q14 0 23-9t9-23v-51l18 17q44 44 101 59 57 14 114 0 57-15 101-59 37-37 53-83 4-13-1-25-6-11-18-16-13-4-25 1-11 6-16 18-12 34-38 60-49 47-113 47t-113-47l-17-17h50q14 0 23-9t9-23q0-14-9-23t-23-9H44q-3 1-5 1z"/></svg>