<svg viewBox="0 0 640 561.2714" xmlns="http://www.w3.org/2000/svg"><path d="M174 6.024q18-11 36 0l18 11q9 6 20 6l21-2q22 0 32 19l10 19q5 9 14 14l20 10q18 10 18 32l-2 21q0 11 6 20l12 18q11 18 0 36l-12 18q-6 9-6 20l2 21q0 22-19 32l-19 10q-9 5-14 14l-10 20q-10 18-31 18l-22-2q-11 0-20 6l-18 12q-18 11-36 0l-18-12q-9-6-20-6l-21 2q-22 0-32-19l-10-19q-5-9-14-14l-19-10q-19-10-19-31l2-22q0-11-6-20l-11-18q-11-18 0-36l11-18q6-9 6-20l-2-21q0-22 19-32l19-10q9-5 14-14l10-19q10-19 32-19l21 2q11 0 20-6l18-11zm98 186q-1-45-40-69-40-22-80 0-39 24-40 69 1 45 40 69 40 22 80 0 39-24 40-69zm-271 250l43-103-43 103 43-103q1 0 1 1l9 19q21 36 62 36l22-2v1l18 11q8 5 16 8l-37 89q-4 9-14 10-9 1-14-7l-33-49-56 8q-9 1-15-6-5-8-2-16zm248 60l-37-89 37 89-37-89q8-3 16-8l18-11v-1l22 2q41 0 62-36l9-19q0-1 1-1l43 103q3 8-2 16-6 7-15 6l-56-8-33 49q-5 7-14 7-10-1-14-10z"/></svg>