<svg viewBox="0 0 640 561.2714" xmlns="http://www.w3.org/2000/svg"><path d="M192 48.023h64-64 64q7 1 8 8v40h-80v-40q1-7 8-8zm-56 8v40-40 40h-8q-54 1-91 37-36 37-37 91v224q1 27 19 45t45 19v-160q1-27 19-45t45-19h192q27 1 45 19t19 45v160q27-1 45-19t19-45v-224q-1-54-37-91-37-36-91-37h-8v-40q-1-24-16-40-16-15-40-16h-64q-24 1-40 16-15 16-16 40zm216 456v-96 96-96H96v96h256zm-208-336h160-160 160q15 1 16 16-1 15-16 16H144q-15-1-16-16 1-15 16-16zm208 208v-32 32-32q0-14-9-23t-23-9H128q-14 0-23 9t-9 23v32h256z"/></svg>