<svg viewBox="0 0 640 561.2714" xmlns="http://www.w3.org/2000/svg"><path d="M160 32.023q-27 1-45 19t-19 45v320q1 27 19 45t45 19h320q27-1 45-19t19-45v-320q-1-27-19-45t-45-19H160zm74 149q6-17 20-27t33-10h58q27 1 45 19 17 17 18 44-1 36-32 55l-32 18q-2 22-24 24-22-2-24-24v-13q0-14 12-21l44-26q8-4 8-13-1-14-15-15h-58q-6 0-8 5v2q-10 20-31 14-20-9-14-30v-2zm54 187q0-14 9-23t23-9q14 0 23 9t9 23q0 14-9 23t-23 9q-14 0-23-9t-9-23zm-144-264q2-22 24-24 22 2 24 24-2 22-24 24-22-2-24-24zm328-24q22 2 24 24-2 22-24 24-22-2-24-24 2-22 24-24zm-328 328q2-22 24-24 22 2 24 24-2 22-24 24-22-2-24-24zm328-24q22 2 24 24-2 22-24 24-22-2-24-24 2-22 24-24z"/></svg>