<svg viewBox="0 0 640 561.2714" xmlns="http://www.w3.org/2000/svg"><path d="M512 80.023q-1 27-38 48-46 25-123 31-5-3-11-5-61-25-148-26-12 0-24 1l-2-1q-37-21-38-48 2-34 56-57 54-22 136-23 82 1 136 23 54 23 56 57zm-351 81q15-1 31-1 47 0 86 9 40 8 67 22 38 21 39 49 0 6-2 12-8 20-35 35l-1 1q-27 15-67 23-39 9-87 9-92-1-148-29-3-2-6-3-37-21-38-48 1-27 36-47t92-28q16-3 33-4zm255 79q-2-33-24-53 43-7 76-21 25-10 44-25v35q-1 30-44 51-22 11-52 18v-5zm-32 96q-1 27-38 48l-4 2q-1 0-2 1-56 28-148 29-48 0-87-9-40-8-67-23-37-21-38-48v-35q19 15 44 25 61 25 148 26 87-1 148-26 12-5 23-11 9-5 17-11 1-1 3-2 0-1 1-1v35zm32 0v-32 32-58q29-6 52-16 25-10 44-25v35q0 16-15 31-26 25-81 38v-5zm-224 112q87-1 148-26 25-10 44-25v35q-2 34-56 57-54 22-136 23-82-1-136-23-54-23-56-57v-35q19 15 44 25 61 25 148 26z"/></svg>