<svg viewBox="0 0 640 561.2714" xmlns="http://www.w3.org/2000/svg"><path d="M256 448.024q72-1 129-28 58-28 92-75t35-105q-1-58-35-105t-92-75q-57-27-129-28-72 1-129 28-58 28-92 75t-35 105q1 69 48 121-5 37-22 63-8 14-15 21-3 4-5 6 0 1-1 1v1q-7 7-4 17 5 10 15 10 44-2 82-19 35-16 54-31 48 18 104 18zm-128-240q14 0 23 9t9 23q0 14-9 23t-23 9q-14 0-23-9t-9-23q0-14 9-23t23-9zm128 0q14 0 23 9t9 23q0 14-9 23t-23 9q-14 0-23-9t-9-23q0-14 9-23t23-9zm96 32q0-14 9-23t23-9q14 0 23 9t9 23q0 14-9 23t-23 9q-14 0-23-9t-9-23z"/></svg>