<svg viewBox="0 0 640 561.2714" xmlns="http://www.w3.org/2000/svg"><path d="M256 .024q14 0 23 9t9 23v10q72 12 121 61 49 50 61 121h10q14 0 23 9t9 23q0 14-9 23t-23 9h-10q-12 72-61 121-50 49-121 61v10q0 14-9 23t-23 9q-14 0-23-9t-9-23v-10q-72-12-121-61t-61-121H32q-14 0-23-9t-9-23q0-14 9-23t23-9h10q12-72 61-121t121-61v-10q0-14 9-23t23-9zm-149 288q10 44 42 75 31 32 75 42v-21q0-14 9-23t23-9q14 0 23 9t9 23v21q44-10 75-42 32-31 42-75h-21q-14 0-23-9t-9-23q0-14 9-23t23-9h21q-10-44-42-75-31-32-75-42v21q0 14-9 23t-23 9q-14 0-23-9t-9-23v-21q-44 10-75 42-32 31-42 75h21q14 0 23 9t9 23q0 14-9 23t-23 9h-21zm149-64q14 0 23 9t9 23q0 14-9 23t-23 9q-14 0-23-9t-9-23q0-14 9-23t23-9z"/></svg>