<svg viewBox="0 0 640 561.2714" xmlns="http://www.w3.org/2000/svg"><path d="M291 49.023l78 29-78-29 78 29-81 32-81-32 78-29q3-1 6 0zm-155 44v112-112 112q-2 0-4 1l-96 36q-34 15-36 53v119q1 35 34 51l96 42q22 10 45 0l113-49 114 49q22 10 45 0l96-42q32-15 33-51v-119q-2-38-36-53l-96-36q-2-1-4-1v-112q-2-38-36-53l-96-36q-20-8-40 0l-96 36q-34 15-36 53zm256 118l-82 31 82-31-82 31v-89l82-32v90zm-237 40l78 30-78-30 78 30-81 31-81-31 78-30q3-1 6 0zm19 204v-100 100-100l82-32v96l-82 36zm247-204q3-1 6 0l78 30-81 31-81-31 78-30zm102 170l-77 34 77-34-77 34v-100l82-32v91q0 5-5 7z"/></svg>