<svg viewBox="0 0 640 561.2714" xmlns="http://www.w3.org/2000/svg"><path d="M275 34.023q-22-21-51-21t-51 21l-139 139q-21 22-21 51t21 51l139 139q22 21 51 21t51-21l139-139q21-22 21-51t-21-51l-139-139zm-75 190q2-22 24-24 22 2 24 24-2 22-24 24-22-2-24-24zm-104-24q22 2 24 24-2 22-24 24-22-2-24-24 2-22 24-24zm128 176q-22-2-24-24 2-22 24-24 22 2 24 24-2 22-24 24zm128-176q22 2 24 24-2 22-24 24-22-2-24-24 2-22 24-24zm-128-80q-22-2-24-24 2-22 24-24 22 2 24 24-2 22-24 24zm96 328q1 27 19 45t45 19h192q27-1 45-19t19-45v-192q-1-27-19-45t-45-19H462q8 28 2 56t-28 50l-116 116v34zm160-120q22 2 24 24-2 22-24 24-22-2-24-24 2-22 24-24z"/></svg>