<svg viewBox="0 0 640 561.2714" xmlns="http://www.w3.org/2000/svg"><path d="M39 5.024q-19-12-34 4-12 19 4 34l592 464q19 12 34-4 12-19-4-34l-105-82q29-31 49-63 20-31 31-56 4-12 0-24-12-28-35-63t-58-68q-36-34-84-57t-109-24q-51 1-94 17-42 17-75 44l-112-88zm184 145q40-37 97-38 61 2 102 42 40 41 42 102 0 38-17 69l-39-30q13-30 5-64-9-31-33-50-25-19-56-21-9 2-7 12 3 9 3 20 0 16-7 28l-90-70zm150 240q-25 10-53 10-61-2-102-42-40-41-42-102 0-10 1-20l-94-74q-34 46-48 82-5 12 0 24 11 28 34 63t59 68q35 34 83 57t109 24q72-2 126-32l-73-58z"/></svg>