<svg viewBox="0 0 640 561.2714" xmlns="http://www.w3.org/2000/svg"><path d="M288 32.023q-61 1-109 24t-84 57q-35 33-58 68t-34 63q-5 12 0 24 11 28 34 63t58 68q36 34 84 57t109 24q61-1 109-24t84-57q35-33 58-68t35-63q5-12 0-24-12-28-35-63t-58-68q-36-34-84-57t-109-24zm-144 224q0-39 19-72t53-53q34-19 72-19t72 19q34 20 53 53t19 72q0 39-19 72t-53 53q-34 19-72 19t-72-19q-34-20-53-53t-19-72zm144-64q-1 27-19 45t-45 19q-11 0-20-3-10-2-12 7 0 10 3 21 12 39 45 58t73 10q39-12 58-45t10-73q-9-31-33-50-25-19-56-21-9 2-7 12 3 9 3 20z"/></svg>