<svg viewBox="0 0 640 561.2714" xmlns="http://www.w3.org/2000/svg"><path d="M256 512.024q70-1 128-34 58-34 94-94 34-61 34-128t-34-128q-36-60-94-94-58-33-128-34-70 1-128 34-58 34-94 94-34 61-34 128t34 128q36 60 94 94 58 33 128 34zm0-224q36 1 55 32 18 32 0 64-19 31-55 32-36-1-55-32-18-32 0-64 19-31 55-32zm-155-155q11-10 22 0l37 36 37-36q11-10 22 0 10 11 0 22l-36 37 36 37q10 11 0 22-11 10-22 0l-37-36-37 36q-11 10-22 0-10-11 0-22l36-37-36-37q-10-11 0-22zm192 0q11-10 22 0l37 36 37-36q11-10 22 0 10 11 0 22l-36 37 36 37q10 11 0 22-11 10-22 0l-37-36-37 36q-11 10-22 0-10-11 0-22l36-37-36-37q-10-11 0-22z"/></svg>