<svg viewBox="0 0 640 561.2714" xmlns="http://www.w3.org/2000/svg"><path d="M0 96.023q1-27 19-45t45-19h384q27 1 45 19t19 45v320q-1 27-19 45t-45 19H64q-27-1-45-19t-19-45v-320zm48 272v32-32 32q1 15 16 16h32q15-1 16-16v-32q-1-15-16-16H64q-15 1-16 16zm368-16q-15 1-16 16v32q1 15 16 16h32q15-1 16-16v-32q-1-15-16-16h-32zm-368-112v32-32 32q1 15 16 16h32q15-1 16-16v-32q-1-15-16-16H64q-15 1-16 16zm368-16q-15 1-16 16v32q1 15 16 16h32q15-1 16-16v-32q-1-15-16-16h-32zm-368-112v32-32 32q1 15 16 16h32q15-1 16-16v-32q-1-15-16-16H64q-15 1-16 16zm368-16q-15 1-16 16v32q1 15 16 16h32q15-1 16-16v-32q-1-15-16-16h-32zm-256 32v64-64 64q0 14 9 23t23 9h128q14 0 23-9t9-23v-64q0-14-9-23t-23-9H192q-14 0-23 9t-9 23zm32 160q-14 0-23 9t-9 23v64q0 14 9 23t23 9h128q14 0 23-9t9-23v-64q0-14-9-23t-23-9H192z"/></svg>