<svg viewBox="0 0 640 561.2714" xmlns="http://www.w3.org/2000/svg"><path d="M0 256.024q1-70 34-128 34-58 94-94 61-34 128-34t128 34q60 36 94 94 33 58 34 128-1 70-34 128-34 58-94 94-61 34-128 34t-128-34q-60-36-94-94-33-58-34-128zm288-160q0-14-9-23t-23-9q-14 0-23 9t-9 23q0 14 9 23t23 9q14 0 23-9t9-23zm-32 320q27-1 45-19t19-45q-1-27-18-45l64-145q7-21-12-32-21-7-32 12l-64 146h-2q-27 1-45 19t-19 45q1 27 19 45t45 19zm-80-272q0-14-9-23t-23-9q-14 0-23 9t-9 23q0 14 9 23t23 9q14 0 23-9t9-23zm-80 144q14 0 23-9t9-23q0-14-9-23t-23-9q-14 0-23 9t-9 23q0 14 9 23t23 9zm352-32q0-14-9-23t-23-9q-14 0-23 9t-9 23q0 14 9 23t23 9q14 0 23-9t9-23z"/></svg>