<svg viewBox="0 0 640 561.2714" xmlns="http://www.w3.org/2000/svg"><path d="M496 167.024q4 14-6 24l-44 40q2 12 2 25t-2 25l44 40q10 10 6 24-7 18-16 35l-5 8q-10 16-22 31-10 11-24 7l-56-18q-20 16-44 25l-12 58q-4 14-19 17-20 4-42 4t-43-4q-14-3-18-17l-12-58q-24-9-44-25l-56 18q-14 4-24-7-13-15-22-31l-5-8q-9-17-16-34-4-15 6-25l44-39q-2-13-2-26t2-25l-44-40q-10-10-6-24 7-18 16-35l5-8q9-16 22-31 10-11 24-7l56 18q20-16 44-26l12-57q4-14 19-17 20-4 42-4t43 4q14 3 18 17l12 57q24 10 44 26l56-18q14-4 24 7 13 15 23 31l4 8q9 17 16 35zm-240 169q45-1 69-40 22-40 0-80-24-39-69-40-45 1-69 40-22 40 0 80 24 39 69 40z"/></svg>