<svg viewBox="0 0 640 561.2714" xmlns="http://www.w3.org/2000/svg"><path d="M352 256.024q0 33-3 64H163q-3-31-3-64t3-64h186q3 31 3 64zm29-64h123-123 123q8 31 8 64t-8 64H381q3-31 3-64t-3-64zm112-32H377h116-116q-16-98-56-152 60 17 105 56 44 40 67 96zm-149 0H168h176-176q9-55 27-95 16-35 33-51 17-15 28-14 11-1 28 14 17 16 33 51 18 40 27 95zm-209 0H19h116H19q23-56 67-96 45-39 105-56-40 54-56 152zm-127 32h123H8h123q-3 31-3 64t3 64H8q-8-31-8-64t8-64zm187 255q-18-40-27-95h176q-9 55-27 95-16 35-33 51-17 15-28 14-11 1-28-14-17-16-33-51zm-60-95q16 98 56 152-60-17-105-56-44-40-67-96h116zm358 0q-23 56-67 96-45 39-104 56 39-54 55-152h116z"/></svg>