<svg viewBox="0 0 640 561.2714" xmlns="http://www.w3.org/2000/svg"><path d="M32 96.023q-14 0-23 9t-9 23q0 14 9 23t23 9h208v-64H32zm160 192q-14 0-23 9t-9 23q0 14 9 23t23 9h64q14 0 23-9t9-23q0-14-9-23t-23-9h-64zm-64-64q0 14 9 23t23 9h48q14 0 23-9t9-23q0-14-9-23t-23-9h-48q-14 0-23 9t-9 23zm96 160q-14 0-23 9t-9 23q0 14 9 23t23 9h64q14 0 23-9t9-23q0-14-9-23t-23-9h-64zm88-96h-1 1-1q9 14 9 32 0 20-11 36 19 6 31 23 12 16 12 37 0 18-9 32h9q68-2 113-47t47-113v-62q-1-66-47-113l-11-11q-38-37-91-38h-27q-27 1-45 19t-19 45v88q0 17 12 28 11 12 28 12t28-12q12-11 12-28v-56q1-15 16-16 15 1 16 16v56q-1 31-21 51t-51 21z"/></svg>