<svg viewBox="0 0 640 561.2714" xmlns="http://www.w3.org/2000/svg"><path d="M192 .024q14 0 23 9t9 23v112h-64v-112q0-14 9-23t23-9zm-128 64q0-14 9-23t23-9q14 0 23 9t9 23v80H64v-80zm192 0q0-14 9-23t23-9q14 0 23 9t9 23v96q0 14-9 23t-23 9q-14 0-23-9t-9-23v-96zm96 64q0-14 9-23t23-9q14 0 23 9t9 23v64q0 14-9 23t-23 9q-14 0-23-9t-9-23v-64zm-96 88v-1 1-1q14 9 32 9 20 0 36-11 6 19 23 31 16 12 37 12 18 0 32-9v9q0 40-17 73t-47 55v96q0 14-9 23t-23 9H160q-14 0-23-9t-9-23v-78q-26-12-47-33l-11-11q-37-38-38-91v-27q1-27 19-45t45-19h88q17 0 28 12 12 11 12 28t-12 28q-11 12-28 12h-56q-15 1-16 16 1 15 16 16h56q31-1 51-21t21-51z"/></svg>