<svg viewBox="0 0 640 561.2714" xmlns="http://www.w3.org/2000/svg"><path d="M500 7.024q12 10 12 25v144q-1 20-19 34-18 13-45 14-27-1-45-14-18-14-19-34 1-20 19-34 18-13 45-14v-57l-96 19v118q-1 20-19 34-18 13-45 14-27-1-45-14-18-14-19-34 1-20 19-34 18-13 45-14v-96q2-25 26-31l160-32q14-3 26 6zm-425 297l12-18-12 18 12-18q9-14 26-14h62q17 0 26 14l12 18h27q20 1 34 14 13 14 14 34v112q-1 20-14 34-14 13-34 14H48q-20-1-34-14-13-14-14-34v-112q1-20 14-34 14-13 34-14h27zm117 104q-1-27-24-42-24-12-48 0-23 15-24 42 1 27 24 42 24 12 48 0 23-15 24-42zm287-130l-39 90 39-90-39 90h56q11 0 15 10 3 11-4 18l-128 112q-10 8-20 1-10-8-6-19l39-90h-56q-11 0-15-10-3-11 4-18l128-112q10-8 20-1 10 8 6 19zm-339-59q-12 10-23 0l-97-100q-21-23-20-53 1-29 25-51 21-17 47-15 27 2 46 22l10 10 10-10q19-20 46-22 26-2 48 15 23 22 24 51 1 30-20 53l-96 100z"/></svg>