<svg viewBox="0 0 640 561.2714" xmlns="http://www.w3.org/2000/svg"><path d="M40 48.023q-22 2-24 24v48q2 22 24 24h48q22-2 24-24v-48q-2-22-24-24H40zm152 16q-14 0-23 9t-9 23q0 14 9 23t23 9h288q14 0 23-9t9-23q0-14-9-23t-23-9H192zm0 160q-14 0-23 9t-9 23q0 14 9 23t23 9h288q14 0 23-9t9-23q0-14-9-23t-23-9H192zm0 160q-14 0-23 9t-9 23q0 14 9 23t23 9h288q14 0 23-9t9-23q0-14-9-23t-23-9H192zm-176-152v48-48 48q2 22 24 24h48q22-2 24-24v-48q-2-22-24-24H40q-22 2-24 24zm24 136q-22 2-24 24v48q2 22 24 24h48q22-2 24-24v-48q-2-22-24-24H40z"/></svg>