<svg viewBox="0 0 640 561.2714" xmlns="http://www.w3.org/2000/svg"><path d="M512 256.024v3q-1 27-22 44-20 17-48 17h-98q-20 1-34 14-13 14-14 34 0 5 1 10 3 14 10 28 0 1 1 2 10 20 12 42 0 24-15 42-14 18-38 20h-11q-72-1-129-35-58-34-92-92-34-57-35-129 1-72 35-129 34-58 92-92 57-34 129-35 72 1 129 35 58 34 92 92 34 57 35 129zm-384 32q0-14-9-23t-23-9q-14 0-23 9t-9 23q0 14 9 23t23 9q14 0 23-9t9-23zm0-96q14 0 23-9t9-23q0-14-9-23t-23-9q-14 0-23 9t-9 23q0 14 9 23t23 9zm160-96q0-14-9-23t-23-9q-14 0-23 9t-9 23q0 14 9 23t23 9q14 0 23-9t9-23zm96 96q14 0 23-9t9-23q0-14-9-23t-23-9q-14 0-23 9t-9 23q0 14 9 23t23 9z"/></svg>