<svg viewBox="0 0 640 561.2714" xmlns="http://www.w3.org/2000/svg"><path d="M602 16.023q-15-14-34-14t-34 14l-40 40 90 89 40-39q14-15 14-34t-14-34l-22-22zm-273 206q-11 11-16 25l-24 71q-4 14 6 25 11 10 25 6l71-24q14-5 25-15l145-142-89-90-143 144zm-249-94q-34 1-57 23-22 23-23 57v224q1 34 23 57 23 22 57 23h416q34-1 57-23 22-23 23-57v-128q0-14-9-23t-23-9q-14 0-23 9t-9 23v128q-1 15-16 16H80q-15-1-16-16v-224q1-15 16-16h192q14 0 23-9t9-23q0-14-9-23t-23-9H80zm80 192q0-14-9-23t-23-9q-14 0-23 9t-9 23q0 14 9 23t23 9q14 0 23-9t9-23zm64 32q14 0 23-9t9-23q0-14-9-23t-23-9q-14 0-23 9t-9 23q0 14 9 23t23 9z"/></svg>