<svg viewBox="0 0 640 561.2714" xmlns="http://www.w3.org/2000/svg"><path d="M192 96.023q27-1 42-24 12-24 0-48-15-23-42-24-27 1-42 24-12 24 0 48 15 23 42 24zm-8 352v-96 96-96h16v96h-16zm-64 0H32h88-88q-14 0-23 9t-9 23q0 14 9 23t23 9h576q14 0 23-9t9-23q0-14-9-23t-23-9H264v-191l29 47q7 12 19 15 13 3 25-4 11-7 14-19 3-13-4-25l-58-97q-13-21-35-34-22-12-47-12h-30q-26 0-47 12-22 13-35 34l-58 97q-7 12-4 25 3 12 14 19 12 7 25 4 12-3 19-15l29-47v191zm479-327l-80-80 80 80-80-80q-10-9-23-9t-23 9l-80 80q-9 10-9 23t9 23q10 9 23 9t23-9l25-26v243q0 14 9 23t23 9q14 0 23-9t9-23v-243l25 26q10 9 23 9t23-9q9-10 9-23t-9-23z"/></svg>