<svg viewBox="0 0 640 561.2714" xmlns="http://www.w3.org/2000/svg"><path d="M256 32.023q0-14-9-23t-23-9q-14 0-23 9t-9 23v10q0 30-16 53-16 24-44 35-46 19-73 59-26 39-27 89v74q0 14 9 23t23 9q14 0 23-9t9-23v-74q0-15 5-29l160 248q8 12 20 14 13 3 24-4 12-8 14-20 3-13-4-24l-92-143h81l38 51q9 11 21 13 13 1 24-6 11-9 13-21 1-13-6-24l-44-58q-14-18-38-19h-71l-57-80q33-23 53-58 19-35 19-76v-10zm-160 48q-1-27-24-42-24-12-48 0-23 15-24 42 1 27 24 42 24 12 48 0 23-15 24-42zm368 206l59 54-59-54 59 54q8 7 17 3 10-5 9-16l-5-79 79-12q10-3 13-13 1-10-7-16l-65-45 39-70q5-9-1-18-7-8-18-5l-76 23-29-74q-4-10-15-10t-15 10l-29 74-76-23q-11-3-18 5-6 9-1 18l40 69-66 45q-9 7-7 17l1 1h19q31 0 54 21l18 3-1 17 36 49 6 8 39-36z"/></svg>