<svg viewBox="0 0 640 561.2714" xmlns="http://www.w3.org/2000/svg"><path d="M118 128.024h89-89 89q41-65 91-93 50-29 99-33 49-5 87 3 18 5 23 23 8 38 3 87-4 49-33 99-28 50-93 91v89q-1 41-35 62l-89 53q-12 6-24 0-12-7-12-21v-115q0-35-25-60-25-24-60-25H24q-14 0-21-12-6-12 0-24l53-89q21-34 62-35zm306 0q-1-23-20-35-20-10-40 0-19 12-20 35 1 23 20 35 20 10 40 0 19-12 20-35zm-257 342q-28 25-68 33-41 9-71 9-12 0-20-8t-8-20q0-30 9-71 8-40 33-67 27-26 62-26t63 26q25 27 25 62t-25 62zm-47-36q8-9 8-21t-8-21q-9-8-21-8t-21 8q-7 8-10 20-3 11-3 22 0 13 14 13 10 0 21-3 12-3 20-10z"/></svg>