<svg viewBox="0 0 640 561.2714" xmlns="http://www.w3.org/2000/svg"><path d="M224 .024q14 0 23 9t9 23v30l15-15q17-14 34 0 14 17 0 34l-49 49v70l61-35 18-67q8-20 29-17 21 8 17 30l-5 19 24-14q12-6 24-3t20 15q6 12 3 24t-15 20l-25 14 22 6q20 8 17 30-8 20-30 17l-68-18-60 35 60 36 68-19q22-3 29 17 4 22-17 30l-21 6 25 14q12 8 15 20t-3 24q-8 12-20 15t-24-3l-24-14 5 19q4 22-17 30-21 3-29-17l-18-67-61-35v70l49 49q14 17 0 34-17 14-34 0l-15-15v30q0 14-9 23t-23 9q-14 0-23-9t-9-23v-30l-15 15q-17 14-34 0-14-17 0-34l49-49v-70l-61 36-18 66q-8 20-29 17-21-8-17-30l5-19-24 14q-12 6-24 3-13-3-20-15-6-12-3-24 3-13 15-20l25-14-22-6q-20-8-17-30 8-20 30-17l67 18 62-35-61-35-68 18q-22 3-29-17-4-22 17-30l21-6-25-14q-12-8-15-20t3-24q8-12 20-15t24 3l24 14-5-19q-4-22 17-30 21-3 29 17l18 67 61 35v-70l-49-49q-14-17 0-34 17-14 34 0l15 15v-30q0-14 9-23t23-9z"/></svg>