<svg viewBox="0 0 640 561.2714" xmlns="http://www.w3.org/2000/svg"><path d="M144 144.024v-16 16-16h160v16q-1 34-23 57-23 22-57 23-34-1-57-23-22-23-23-57zm0-125q-1 0-1-1l-3-2-16-12q-4-4-10-4h-2q-15 1-16 16v128q1 54 37 91 37 36 91 37 54-1 91-37 36-37 37-91v-128q-1-15-16-16h-2q-6 0-10 4l-16 12-3 2q0 1-1 1-17 11-35 2l-30-17q-7-4-15-4t-15 4l-30 17q-18 10-35-2zm24 285q-71 2-119 49-47 48-49 119v8q0 14 9 23t23 9h384q14 0 23-9t9-23v-8q-2-71-49-119-48-47-119-49H168zm264-48q48-1 79-33 32-31 33-79-1-48-33-79-31-32-79-33-26 0-48 11v101q0 8-1 16-4 37-22 67l-2 2q31 26 73 27zm39 256h138-138 138q13 0 22-9t9-22q-2-68-47-114-46-45-114-47h-69q33 28 51 67 19 39 19 85v8q0 18-9 32z"/></svg>