<svg viewBox="0 0 640 561.2714" xmlns="http://www.w3.org/2000/svg"><path d="M96 128.024q0-35 17-64t47-47q30-17 64-17t64 17q30 18 47 47t17 64q0 35-17 64t-47 47q-30 17-64 17t-64-17q-30-18-47-47t-17-64zm-96 354q2-75 52-126 51-50 126-52h92q75 2 126 52 50 51 52 126 0 13-9 21-8 9-21 9H30q-13 0-21-9-9-8-9-21zm609 30H471h138-138q9-14 9-32v-8q0-46-19-85-18-39-51-67h69q68 2 114 47 45 46 47 114 0 13-9 22t-22 9zm-177-256q-48-1-79-33 30-41 31-95 0-41-18-74 28-21 66-22 48 1 79 33 32 31 33 79-1 48-33 79-31 32-79 33z"/></svg>